<svg xmlns="http://www.w3.org/2000/svg" width="1080" height="1080" fill="none" viewBox="0 0 1080 1080"><rect width="1080" height="1080" fill="#2D2D2D" rx="540"/><path fill="#fff" d="M272 519.333C281.333 470.333 327.333 436.667 377.333 436.667H475C492.333 436.667 506.667 422.333 506.667 405C506.667 387.667 492.333 373.333 475 373.333H380.667C293.667 373.333 216 437 207.667 523.667C198 623 276 706.667 373.333 706.667H475C492.333 706.667 506.667 692.333 506.667 675C506.667 657.667 492.333 643.333 475 643.333H373.333C309.667 643.333 259.333 585.333 272 519.333ZM440 573.333H640C658.333 573.333 673.333 558.333 673.333 540C673.333 521.667 658.333 506.667 640 506.667H440C421.667 506.667 406.667 521.667 406.667 540C406.667 558.333 421.667 573.333 440 573.333ZM699.333 373.333H605C587.667 373.333 573.333 387.667 573.333 405C573.333 422.333 587.667 436.667 605 436.667H702.667C752.667 436.667 798.667 470.333 808 519.333C820.667 585.333 770.333 643.333 706.667 643.333H605C587.667 643.333 573.333 657.667 573.333 675C573.333 692.333 587.667 706.667 605 706.667H706.667C804 706.667 882 623 872.667 523.667C864.333 437 786.333 373.333 699.333 373.333Z"/></svg>